<svg width="34" height="34" viewBox="0 0 34 34" fill="none" xmlns="http://www.w3.org/2000/svg">
<path d="M17 0C7.61115 0 0 7.61115 0 17C0 26.3888 7.61115 34 17 34C26.3888 34 34 26.3888 34 17C34 7.61115 26.3888 0 17 0ZM17 31.875C8.78475 31.875 2.125 25.2153 2.125 17C2.125 8.78475 8.78475 2.125 17 2.125C25.2153 2.125 31.875 8.78475 31.875 17C31.875 25.2153 25.2153 31.875 17 31.875Z" fill="#001E7A"/>
<path d="M19.433 7.75623L10.933 16.2562C10.521 16.6707 10.521 17.3399 10.933 17.7543L19.433 26.2544L20.9311 24.7456L13.1855 17L20.9311 9.25435L19.433 7.75623Z" fill="#001E7A"/>
</svg>
